<svg xmlns="http://www.w3.org/2000/svg" xmlns:xlink="http://www.w3.org/1999/xlink" width="1000" zoomAndPan="magnify" viewBox="0 0 750 374.999991" height="500" preserveAspectRatio="xMidYMid meet" version="1.0"><defs><g/><clipPath id="c4ee52bfe1"><path d="M 279 89.746094 L 473 89.746094 L 473 215 L 279 215 Z M 279 89.746094 " clip-rule="nonzero"/></clipPath><clipPath id="0c956e128f"><path d="M 289 182 L 347 182 L 347 239.746094 L 289 239.746094 Z M 289 182 " clip-rule="nonzero"/></clipPath><clipPath id="f5299ee170"><path d="M 394 182 L 453 182 L 453 239.746094 L 394 239.746094 Z M 394 182 " clip-rule="nonzero"/></clipPath><clipPath id="f203cca40b"><path d="M 374 89.746094 L 453 89.746094 L 453 155 L 374 155 Z M 374 89.746094 " clip-rule="nonzero"/></clipPath></defs><rect x="-75" width="900" fill="#ffffff" y="-37.499999" height="449.999989" fill-opacity="1"/><rect x="-75" width="900" fill="#ffffff" y="-37.499999" height="449.999989" fill-opacity="1"/><path fill="#000000" d="M 293.53125 214.574219 L 267.492188 214.574219 C 267.214844 214.574219 266.941406 214.546875 266.667969 214.492188 C 266.394531 214.4375 266.128906 214.359375 265.871094 214.253906 C 265.617188 214.144531 265.371094 214.015625 265.140625 213.859375 C 264.910156 213.707031 264.695312 213.53125 264.5 213.332031 C 264.300781 213.136719 264.125 212.921875 263.972656 212.691406 C 263.816406 212.460938 263.6875 212.214844 263.582031 211.960938 C 263.472656 211.703125 263.394531 211.4375 263.339844 211.164062 C 263.285156 210.890625 263.257812 210.617188 263.257812 210.335938 C 263.257812 210.058594 263.285156 209.785156 263.339844 209.511719 C 263.394531 209.238281 263.472656 208.972656 263.582031 208.714844 C 263.6875 208.460938 263.816406 208.214844 263.972656 207.984375 C 264.125 207.753906 264.300781 207.539062 264.5 207.339844 C 264.695312 207.144531 264.910156 206.96875 265.140625 206.816406 C 265.371094 206.660156 265.617188 206.53125 265.871094 206.421875 C 266.128906 206.316406 266.394531 206.234375 266.667969 206.183594 C 266.941406 206.128906 267.214844 206.101562 267.492188 206.101562 L 293.53125 206.101562 C 293.808594 206.101562 294.082031 206.128906 294.355469 206.183594 C 294.628906 206.234375 294.894531 206.316406 295.152344 206.421875 C 295.40625 206.53125 295.652344 206.660156 295.882812 206.8125 C 296.113281 206.96875 296.328125 207.144531 296.523438 207.339844 C 296.722656 207.539062 296.898438 207.753906 297.050781 207.984375 C 297.207031 208.214844 297.335938 208.460938 297.441406 208.714844 C 297.550781 208.972656 297.628906 209.238281 297.683594 209.511719 C 297.738281 209.785156 297.765625 210.058594 297.765625 210.335938 C 297.765625 210.617188 297.738281 210.890625 297.683594 211.164062 C 297.628906 211.4375 297.550781 211.703125 297.441406 211.960938 C 297.335938 212.214844 297.207031 212.460938 297.050781 212.691406 C 296.898438 212.921875 296.722656 213.136719 296.523438 213.332031 C 296.328125 213.53125 296.113281 213.707031 295.882812 213.859375 C 295.652344 214.015625 295.40625 214.144531 295.152344 214.253906 C 294.894531 214.359375 294.628906 214.4375 294.355469 214.492188 C 294.082031 214.546875 293.808594 214.574219 293.53125 214.574219 Z M 293.53125 214.574219 " fill-opacity="1" fill-rule="nonzero"/><path fill="#000000" d="M 399.167969 214.574219 L 342.296875 214.574219 C 342.019531 214.574219 341.742188 214.546875 341.46875 214.492188 C 341.199219 214.4375 340.933594 214.359375 340.675781 214.253906 C 340.417969 214.144531 340.175781 214.015625 339.945312 213.859375 C 339.710938 213.707031 339.5 213.53125 339.300781 213.332031 C 339.105469 213.136719 338.929688 212.921875 338.773438 212.691406 C 338.621094 212.460938 338.488281 212.214844 338.382812 211.960938 C 338.277344 211.703125 338.195312 211.4375 338.140625 211.164062 C 338.089844 210.890625 338.0625 210.617188 338.0625 210.335938 C 338.0625 210.058594 338.089844 209.785156 338.140625 209.511719 C 338.195312 209.238281 338.277344 208.972656 338.382812 208.714844 C 338.488281 208.460938 338.621094 208.214844 338.773438 207.984375 C 338.929688 207.753906 339.105469 207.539062 339.300781 207.339844 C 339.5 207.144531 339.710938 206.96875 339.945312 206.816406 C 340.175781 206.660156 340.417969 206.53125 340.675781 206.421875 C 340.933594 206.316406 341.199219 206.234375 341.46875 206.183594 C 341.742188 206.128906 342.019531 206.101562 342.296875 206.101562 L 399.167969 206.101562 C 399.445312 206.101562 399.722656 206.128906 399.996094 206.183594 C 400.265625 206.234375 400.53125 206.316406 400.789062 206.421875 C 401.046875 206.53125 401.289062 206.660156 401.519531 206.8125 C 401.753906 206.96875 401.964844 207.144531 402.164062 207.339844 C 402.359375 207.539062 402.535156 207.753906 402.691406 207.984375 C 402.84375 208.214844 402.976562 208.460938 403.082031 208.714844 C 403.1875 208.972656 403.269531 209.238281 403.324219 209.511719 C 403.375 209.785156 403.402344 210.058594 403.402344 210.335938 C 403.402344 210.617188 403.375 210.890625 403.324219 211.164062 C 403.269531 211.4375 403.1875 211.703125 403.082031 211.960938 C 402.976562 212.214844 402.84375 212.460938 402.691406 212.691406 C 402.535156 212.921875 402.359375 213.136719 402.164062 213.332031 C 401.964844 213.53125 401.753906 213.707031 401.519531 213.859375 C 401.289062 214.015625 401.046875 214.144531 400.789062 214.253906 C 400.53125 214.359375 400.265625 214.4375 399.996094 214.492188 C 399.722656 214.546875 399.445312 214.574219 399.167969 214.574219 Z M 399.167969 214.574219 " fill-opacity="1" fill-rule="nonzero"/><g clip-path="url(#c4ee52bfe1)"><path fill="#000000" d="M 468.265625 214.574219 L 447.878906 214.574219 C 447.601562 214.574219 447.324219 214.546875 447.050781 214.492188 C 446.78125 214.4375 446.515625 214.359375 446.257812 214.253906 C 446 214.144531 445.757812 214.015625 445.527344 213.859375 C 445.292969 213.707031 445.082031 213.53125 444.882812 213.332031 C 444.6875 213.136719 444.511719 212.921875 444.355469 212.691406 C 444.203125 212.460938 444.070312 212.214844 443.964844 211.960938 C 443.859375 211.703125 443.777344 211.4375 443.722656 211.164062 C 443.671875 210.890625 443.644531 210.617188 443.644531 210.335938 C 443.644531 210.058594 443.671875 209.785156 443.722656 209.511719 C 443.777344 209.238281 443.859375 208.972656 443.964844 208.714844 C 444.070312 208.460938 444.203125 208.214844 444.355469 207.984375 C 444.511719 207.753906 444.6875 207.539062 444.882812 207.339844 C 445.082031 207.144531 445.292969 206.96875 445.527344 206.816406 C 445.757812 206.660156 446 206.53125 446.257812 206.421875 C 446.515625 206.316406 446.78125 206.234375 447.050781 206.183594 C 447.324219 206.128906 447.601562 206.101562 447.878906 206.101562 L 464.117188 206.101562 L 464.117188 173.277344 C 464.117188 172.214844 463.992188 171.167969 463.742188 170.136719 C 463.488281 169.109375 463.117188 168.121094 462.625 167.183594 C 462.132812 166.242188 461.535156 165.375 460.832031 164.582031 C 460.128906 163.785156 459.339844 163.085938 458.46875 162.484375 L 445.480469 153.699219 C 445.019531 153.375 444.636719 152.976562 444.320312 152.511719 L 413.484375 104.855469 C 412.84375 103.851562 412.085938 102.941406 411.214844 102.128906 C 410.34375 101.316406 409.382812 100.625 408.339844 100.054688 C 407.292969 99.484375 406.191406 99.050781 405.035156 98.761719 C 403.878906 98.46875 402.703125 98.324219 401.511719 98.332031 L 283.390625 98.332031 C 283.113281 98.332031 282.839844 98.304688 282.566406 98.25 C 282.292969 98.195312 282.027344 98.117188 281.769531 98.007812 C 281.515625 97.902344 281.269531 97.773438 281.039062 97.617188 C 280.808594 97.464844 280.59375 97.289062 280.398438 97.089844 C 280.199219 96.894531 280.023438 96.679688 279.871094 96.449219 C 279.714844 96.21875 279.585938 95.972656 279.480469 95.714844 C 279.371094 95.460938 279.292969 95.195312 279.238281 94.921875 C 279.183594 94.648438 279.15625 94.371094 279.15625 94.09375 C 279.15625 93.816406 279.183594 93.539062 279.238281 93.269531 C 279.292969 92.996094 279.371094 92.730469 279.480469 92.472656 C 279.585938 92.214844 279.714844 91.972656 279.871094 91.742188 C 280.023438 91.507812 280.199219 91.296875 280.398438 91.097656 C 280.59375 90.902344 280.808594 90.726562 281.039062 90.570312 C 281.269531 90.417969 281.515625 90.285156 281.769531 90.179688 C 282.027344 90.074219 282.292969 89.992188 282.566406 89.9375 C 282.839844 89.882812 283.113281 89.859375 283.390625 89.859375 L 401.511719 89.859375 C 403.410156 89.851562 405.28125 90.082031 407.125 90.546875 C 408.964844 91.011719 410.71875 91.699219 412.386719 92.609375 C 414.054688 93.515625 415.585938 94.617188 416.976562 95.914062 C 418.367188 97.207031 419.574219 98.652344 420.601562 100.253906 L 450.957031 147.171875 L 463.097656 155.480469 C 464.554688 156.460938 465.871094 157.605469 467.046875 158.914062 C 468.222656 160.21875 469.226562 161.648438 470.050781 163.199219 C 470.878906 164.75 471.507812 166.378906 471.9375 168.082031 C 472.363281 169.785156 472.582031 171.519531 472.585938 173.277344 L 472.585938 210.335938 C 472.585938 210.621094 472.558594 210.898438 472.503906 211.175781 C 472.449219 211.449219 472.367188 211.71875 472.257812 211.980469 C 472.148438 212.238281 472.015625 212.484375 471.855469 212.71875 C 471.699219 212.953125 471.519531 213.167969 471.316406 213.363281 C 471.117188 213.5625 470.898438 213.738281 470.660156 213.890625 C 470.425781 214.042969 470.175781 214.171875 469.914062 214.277344 C 469.652344 214.382812 469.382812 214.457031 469.105469 214.507812 C 468.828125 214.558594 468.546875 214.582031 468.265625 214.574219 Z M 468.265625 214.574219 " fill-opacity="1" fill-rule="nonzero"/></g><g clip-path="url(#0c956e128f)"><path fill="#000000" d="M 317.898438 239.914062 C 316.960938 239.914062 316.027344 239.867188 315.09375 239.777344 C 314.160156 239.683594 313.234375 239.546875 312.3125 239.363281 C 311.394531 239.179688 310.484375 238.953125 309.585938 238.679688 C 308.691406 238.40625 307.808594 238.09375 306.941406 237.734375 C 306.074219 237.375 305.226562 236.972656 304.402344 236.53125 C 303.574219 236.089844 302.769531 235.609375 301.992188 235.085938 C 301.210938 234.566406 300.460938 234.007812 299.734375 233.410156 C 299.007812 232.816406 298.316406 232.1875 297.652344 231.523438 C 296.988281 230.859375 296.359375 230.167969 295.765625 229.441406 C 295.171875 228.714844 294.613281 227.964844 294.089844 227.183594 C 293.570312 226.402344 293.089844 225.601562 292.648438 224.773438 C 292.203125 223.945312 291.804688 223.097656 291.445312 222.230469 C 291.085938 221.363281 290.769531 220.484375 290.5 219.585938 C 290.226562 218.6875 290 217.777344 289.816406 216.859375 C 289.632812 215.9375 289.496094 215.011719 289.402344 214.078125 C 289.3125 213.144531 289.265625 212.207031 289.265625 211.269531 C 289.265625 210.332031 289.3125 209.394531 289.402344 208.460938 C 289.496094 207.527344 289.632812 206.601562 289.816406 205.683594 C 290 204.761719 290.226562 203.851562 290.5 202.953125 C 290.769531 202.058594 291.085938 201.175781 291.445312 200.308594 C 291.804688 199.441406 292.203125 198.59375 292.648438 197.765625 C 293.089844 196.941406 293.570312 196.136719 294.089844 195.355469 C 294.613281 194.574219 295.171875 193.824219 295.765625 193.097656 C 296.359375 192.375 296.988281 191.679688 297.652344 191.015625 C 298.316406 190.351562 299.007812 189.722656 299.734375 189.128906 C 300.460938 188.53125 301.210938 187.972656 301.992188 187.453125 C 302.769531 186.933594 303.574219 186.449219 304.402344 186.007812 C 305.226562 185.566406 306.074219 185.164062 306.941406 184.804688 C 307.808594 184.445312 308.691406 184.132812 309.585938 183.859375 C 310.484375 183.585938 311.394531 183.359375 312.3125 183.175781 C 313.234375 182.992188 314.160156 182.855469 315.09375 182.765625 C 316.027344 182.671875 316.960938 182.625 317.898438 182.625 C 318.835938 182.625 319.773438 182.671875 320.707031 182.765625 C 321.640625 182.855469 322.566406 182.992188 323.484375 183.175781 C 324.40625 183.359375 325.3125 183.585938 326.210938 183.859375 C 327.109375 184.132812 327.988281 184.445312 328.855469 184.804688 C 329.722656 185.164062 330.570312 185.566406 331.398438 186.007812 C 332.222656 186.449219 333.027344 186.933594 333.808594 187.453125 C 334.585938 187.972656 335.339844 188.53125 336.0625 189.128906 C 336.789062 189.722656 337.484375 190.351562 338.144531 191.015625 C 338.808594 191.679688 339.4375 192.375 340.03125 193.097656 C 340.628906 193.824219 341.1875 194.574219 341.707031 195.355469 C 342.226562 196.136719 342.710938 196.941406 343.152344 197.765625 C 343.59375 198.59375 343.992188 199.441406 344.351562 200.308594 C 344.710938 201.175781 345.027344 202.058594 345.300781 202.953125 C 345.570312 203.851562 345.800781 204.761719 345.980469 205.683594 C 346.164062 206.601562 346.300781 207.527344 346.394531 208.460938 C 346.488281 209.394531 346.53125 210.332031 346.53125 211.269531 C 346.53125 212.207031 346.488281 213.144531 346.394531 214.078125 C 346.300781 215.011719 346.164062 215.9375 345.980469 216.859375 C 345.800781 217.777344 345.570312 218.6875 345.300781 219.585938 C 345.027344 220.484375 344.710938 221.363281 344.351562 222.230469 C 343.992188 223.097656 343.59375 223.945312 343.152344 224.773438 C 342.710938 225.601562 342.226562 226.402344 341.707031 227.183594 C 341.1875 227.964844 340.628906 228.714844 340.03125 229.441406 C 339.4375 230.167969 338.808594 230.859375 338.144531 231.523438 C 337.484375 232.1875 336.789062 232.816406 336.0625 233.410156 C 335.339844 234.007812 334.585938 234.566406 333.808594 235.085938 C 333.027344 235.609375 332.222656 236.089844 331.398438 236.53125 C 330.570312 236.972656 329.722656 237.375 328.855469 237.734375 C 327.988281 238.09375 327.109375 238.40625 326.210938 238.679688 C 325.3125 238.953125 324.40625 239.179688 323.484375 239.363281 C 322.566406 239.546875 321.640625 239.683594 320.707031 239.777344 C 319.773438 239.867188 318.835938 239.914062 317.898438 239.914062 Z M 317.898438 191.101562 C 317.238281 191.101562 316.578125 191.132812 315.921875 191.199219 C 315.265625 191.261719 314.613281 191.359375 313.964844 191.488281 C 313.316406 191.617188 312.679688 191.777344 312.046875 191.96875 C 311.414062 192.160156 310.792969 192.382812 310.183594 192.636719 C 309.574219 192.886719 308.976562 193.171875 308.394531 193.480469 C 307.8125 193.792969 307.246094 194.132812 306.699219 194.5 C 306.148438 194.867188 305.617188 195.257812 305.109375 195.679688 C 304.597656 196.097656 304.109375 196.539062 303.640625 197.007812 C 303.175781 197.476562 302.730469 197.964844 302.3125 198.472656 C 301.894531 198.984375 301.5 199.515625 301.136719 200.0625 C 300.769531 200.613281 300.429688 201.179688 300.117188 201.761719 C 299.804688 202.34375 299.523438 202.941406 299.273438 203.550781 C 299.019531 204.160156 298.796875 204.78125 298.605469 205.414062 C 298.414062 206.046875 298.253906 206.6875 298.125 207.335938 C 297.996094 207.984375 297.898438 208.636719 297.835938 209.292969 C 297.769531 209.949219 297.738281 210.609375 297.738281 211.269531 C 297.738281 211.929688 297.769531 212.589844 297.835938 213.246094 C 297.898438 213.902344 297.996094 214.558594 298.125 215.203125 C 298.253906 215.851562 298.414062 216.492188 298.605469 217.125 C 298.796875 217.757812 299.019531 218.378906 299.273438 218.988281 C 299.523438 219.597656 299.804688 220.195312 300.117188 220.777344 C 300.429688 221.359375 300.769531 221.925781 301.136719 222.476562 C 301.5 223.023438 301.894531 223.554688 302.3125 224.066406 C 302.730469 224.574219 303.175781 225.066406 303.640625 225.53125 C 304.109375 226 304.597656 226.441406 305.109375 226.859375 C 305.617188 227.28125 306.148438 227.671875 306.699219 228.039062 C 307.246094 228.40625 307.8125 228.746094 308.394531 229.058594 C 308.976562 229.367188 309.574219 229.652344 310.183594 229.902344 C 310.792969 230.15625 311.414062 230.378906 312.046875 230.570312 C 312.679688 230.761719 313.316406 230.921875 313.964844 231.050781 C 314.613281 231.179688 315.265625 231.277344 315.921875 231.34375 C 316.578125 231.40625 317.238281 231.4375 317.898438 231.4375 C 318.558594 231.4375 319.21875 231.40625 319.875 231.34375 C 320.53125 231.277344 321.183594 231.179688 321.832031 231.050781 C 322.480469 230.921875 323.121094 230.761719 323.75 230.570312 C 324.382812 230.378906 325.003906 230.15625 325.613281 229.902344 C 326.226562 229.652344 326.820312 229.367188 327.402344 229.058594 C 327.984375 228.746094 328.550781 228.40625 329.101562 228.039062 C 329.648438 227.671875 330.179688 227.28125 330.691406 226.859375 C 331.199219 226.441406 331.6875 226 332.15625 225.53125 C 332.621094 225.066406 333.066406 224.574219 333.484375 224.066406 C 333.902344 223.554688 334.296875 223.023438 334.664062 222.476562 C 335.03125 221.925781 335.367188 221.359375 335.679688 220.777344 C 335.992188 220.195312 336.273438 219.597656 336.527344 218.988281 C 336.777344 218.378906 337 217.757812 337.191406 217.125 C 337.382812 216.492188 337.542969 215.851562 337.671875 215.203125 C 337.800781 214.558594 337.898438 213.902344 337.964844 213.246094 C 338.027344 212.589844 338.0625 211.929688 338.0625 211.269531 C 338.058594 210.609375 338.027344 209.949219 337.960938 209.292969 C 337.894531 208.636719 337.796875 207.984375 337.667969 207.335938 C 337.539062 206.6875 337.378906 206.050781 337.1875 205.417969 C 336.996094 204.785156 336.773438 204.164062 336.519531 203.554688 C 336.265625 202.945312 335.984375 202.351562 335.671875 201.769531 C 335.359375 201.183594 335.019531 200.621094 334.65625 200.070312 C 334.289062 199.523438 333.894531 198.992188 333.476562 198.480469 C 333.058594 197.972656 332.613281 197.484375 332.148438 197.015625 C 331.679688 196.550781 331.191406 196.105469 330.683594 195.6875 C 330.171875 195.269531 329.640625 194.875 329.09375 194.507812 C 328.546875 194.140625 327.980469 193.800781 327.398438 193.492188 C 326.816406 193.179688 326.21875 192.894531 325.609375 192.644531 C 325 192.390625 324.378906 192.167969 323.75 191.976562 C 323.117188 191.78125 322.476562 191.621094 321.832031 191.492188 C 321.183594 191.363281 320.53125 191.265625 319.875 191.199219 C 319.21875 191.132812 318.558594 191.101562 317.898438 191.101562 Z M 317.898438 191.101562 " fill-opacity="1" fill-rule="nonzero"/></g><g clip-path="url(#f5299ee170)"><path fill="#000000" d="M 423.480469 239.914062 C 422.542969 239.914062 421.609375 239.867188 420.675781 239.777344 C 419.742188 239.683594 418.816406 239.546875 417.894531 239.363281 C 416.976562 239.179688 416.066406 238.953125 415.167969 238.679688 C 414.273438 238.40625 413.390625 238.09375 412.523438 237.734375 C 411.65625 237.375 410.808594 236.972656 409.984375 236.53125 C 409.15625 236.089844 408.351562 235.609375 407.574219 235.085938 C 406.792969 234.566406 406.042969 234.007812 405.316406 233.410156 C 404.589844 232.816406 403.898438 232.1875 403.234375 231.523438 C 402.570312 230.859375 401.941406 230.167969 401.347656 229.441406 C 400.753906 228.714844 400.195312 227.964844 399.671875 227.183594 C 399.152344 226.402344 398.671875 225.601562 398.230469 224.773438 C 397.785156 223.945312 397.386719 223.097656 397.027344 222.230469 C 396.667969 221.363281 396.351562 220.484375 396.082031 219.585938 C 395.808594 218.6875 395.582031 217.777344 395.398438 216.859375 C 395.214844 215.9375 395.078125 215.011719 394.984375 214.078125 C 394.894531 213.144531 394.847656 212.207031 394.847656 211.269531 C 394.847656 210.332031 394.894531 209.394531 394.984375 208.460938 C 395.078125 207.527344 395.214844 206.601562 395.398438 205.683594 C 395.582031 204.761719 395.808594 203.851562 396.082031 202.953125 C 396.351562 202.058594 396.667969 201.175781 397.027344 200.308594 C 397.386719 199.441406 397.785156 198.59375 398.230469 197.765625 C 398.671875 196.941406 399.152344 196.136719 399.671875 195.355469 C 400.195312 194.574219 400.753906 193.824219 401.347656 193.097656 C 401.941406 192.375 402.570312 191.679688 403.234375 191.015625 C 403.898438 190.351562 404.589844 189.722656 405.316406 189.128906 C 406.042969 188.53125 406.792969 187.972656 407.574219 187.453125 C 408.351562 186.933594 409.15625 186.449219 409.984375 186.007812 C 410.808594 185.566406 411.65625 185.164062 412.523438 184.804688 C 413.390625 184.445312 414.273438 184.132812 415.167969 183.859375 C 416.066406 183.585938 416.976562 183.359375 417.894531 183.175781 C 418.816406 182.992188 419.742188 182.855469 420.675781 182.765625 C 421.609375 182.671875 422.542969 182.625 423.480469 182.625 C 424.417969 182.625 425.355469 182.671875 426.289062 182.765625 C 427.222656 182.855469 428.148438 182.992188 429.066406 183.175781 C 429.988281 183.359375 430.894531 183.585938 431.792969 183.859375 C 432.691406 184.132812 433.574219 184.445312 434.4375 184.804688 C 435.304688 185.164062 436.152344 185.566406 436.980469 186.007812 C 437.804688 186.449219 438.609375 186.933594 439.390625 187.453125 C 440.167969 187.972656 440.921875 188.53125 441.644531 189.128906 C 442.371094 189.722656 443.066406 190.351562 443.726562 191.015625 C 444.390625 191.679688 445.019531 192.375 445.613281 193.097656 C 446.210938 193.824219 446.769531 194.574219 447.289062 195.355469 C 447.808594 196.136719 448.292969 196.941406 448.734375 197.765625 C 449.175781 198.59375 449.574219 199.441406 449.933594 200.308594 C 450.292969 201.175781 450.609375 202.058594 450.882812 202.953125 C 451.152344 203.851562 451.382812 204.761719 451.5625 205.683594 C 451.746094 206.601562 451.882812 207.527344 451.976562 208.460938 C 452.070312 209.394531 452.113281 210.332031 452.113281 211.269531 C 452.113281 212.207031 452.066406 213.144531 451.972656 214.078125 C 451.882812 215.011719 451.742188 215.9375 451.558594 216.855469 C 451.375 217.777344 451.148438 218.683594 450.875 219.582031 C 450.601562 220.480469 450.285156 221.359375 449.925781 222.226562 C 449.566406 223.09375 449.167969 223.941406 448.726562 224.765625 C 448.28125 225.59375 447.800781 226.398438 447.28125 227.175781 C 446.757812 227.957031 446.203125 228.707031 445.605469 229.433594 C 445.011719 230.160156 444.382812 230.851562 443.71875 231.515625 C 443.058594 232.179688 442.363281 232.808594 441.636719 233.402344 C 440.914062 234 440.160156 234.554688 439.382812 235.078125 C 438.601562 235.597656 437.800781 236.082031 436.972656 236.523438 C 436.148438 236.964844 435.300781 237.367188 434.433594 237.726562 C 433.566406 238.085938 432.6875 238.402344 431.789062 238.675781 C 430.894531 238.945312 429.984375 239.175781 429.066406 239.359375 C 428.144531 239.542969 427.21875 239.679688 426.285156 239.773438 C 425.355469 239.867188 424.417969 239.914062 423.480469 239.914062 Z M 423.480469 191.101562 C 422.820312 191.101562 422.160156 191.132812 421.503906 191.199219 C 420.847656 191.261719 420.195312 191.359375 419.546875 191.488281 C 418.898438 191.617188 418.261719 191.777344 417.628906 191.96875 C 416.996094 192.160156 416.375 192.382812 415.765625 192.636719 C 415.15625 192.886719 414.558594 193.171875 413.976562 193.480469 C 413.394531 193.792969 412.828125 194.132812 412.28125 194.5 C 411.730469 194.867188 411.199219 195.257812 410.691406 195.679688 C 410.179688 196.097656 409.691406 196.539062 409.222656 197.007812 C 408.757812 197.476562 408.316406 197.964844 407.894531 198.472656 C 407.476562 198.984375 407.082031 199.515625 406.71875 200.0625 C 406.351562 200.613281 406.011719 201.179688 405.699219 201.761719 C 405.386719 202.34375 405.105469 202.941406 404.855469 203.550781 C 404.601562 204.160156 404.378906 204.78125 404.1875 205.414062 C 403.996094 206.046875 403.835938 206.6875 403.707031 207.335938 C 403.578125 207.984375 403.480469 208.636719 403.417969 209.292969 C 403.351562 209.949219 403.320312 210.609375 403.320312 211.269531 C 403.320312 211.929688 403.351562 212.589844 403.417969 213.246094 C 403.480469 213.902344 403.578125 214.558594 403.707031 215.203125 C 403.835938 215.851562 403.996094 216.492188 404.1875 217.125 C 404.378906 217.757812 404.601562 218.378906 404.855469 218.988281 C 405.105469 219.597656 405.386719 220.195312 405.699219 220.777344 C 406.011719 221.359375 406.351562 221.925781 406.71875 222.476562 C 407.082031 223.023438 407.476562 223.554688 407.894531 224.066406 C 408.316406 224.574219 408.757812 225.066406 409.222656 225.53125 C 409.691406 226 410.179688 226.441406 410.691406 226.859375 C 411.199219 227.28125 411.730469 227.671875 412.28125 228.039062 C 412.828125 228.40625 413.394531 228.746094 413.976562 229.058594 C 414.558594 229.367188 415.15625 229.652344 415.765625 229.902344 C 416.375 230.15625 416.996094 230.378906 417.628906 230.570312 C 418.261719 230.761719 418.898438 230.921875 419.546875 231.050781 C 420.195312 231.179688 420.847656 231.277344 421.503906 231.34375 C 422.160156 231.40625 422.820312 231.4375 423.480469 231.4375 C 424.140625 231.4375 424.800781 231.40625 425.457031 231.34375 C 426.113281 231.277344 426.765625 231.179688 427.414062 231.050781 C 428.0625 230.921875 428.703125 230.761719 429.332031 230.570312 C 429.964844 230.378906 430.585938 230.15625 431.195312 229.902344 C 431.808594 229.652344 432.402344 229.367188 432.984375 229.058594 C 433.566406 228.746094 434.132812 228.40625 434.683594 228.039062 C 435.230469 227.671875 435.761719 227.28125 436.273438 226.859375 C 436.78125 226.441406 437.269531 226 437.738281 225.53125 C 438.203125 225.066406 438.648438 224.574219 439.066406 224.066406 C 439.484375 223.554688 439.878906 223.023438 440.246094 222.476562 C 440.613281 221.925781 440.949219 221.359375 441.261719 220.777344 C 441.574219 220.195312 441.855469 219.597656 442.109375 218.988281 C 442.359375 218.378906 442.582031 217.757812 442.773438 217.125 C 442.964844 216.492188 443.125 215.851562 443.253906 215.203125 C 443.382812 214.558594 443.480469 213.902344 443.546875 213.246094 C 443.609375 212.589844 443.644531 211.929688 443.644531 211.269531 C 443.640625 210.609375 443.605469 209.953125 443.539062 209.292969 C 443.476562 208.636719 443.375 207.984375 443.246094 207.339844 C 443.117188 206.691406 442.953125 206.050781 442.761719 205.421875 C 442.570312 204.789062 442.347656 204.167969 442.09375 203.558594 C 441.839844 202.949219 441.558594 202.355469 441.246094 201.773438 C 440.933594 201.191406 440.59375 200.625 440.226562 200.078125 C 439.859375 199.527344 439.46875 199 439.050781 198.488281 C 438.628906 197.980469 438.1875 197.492188 437.722656 197.023438 C 437.253906 196.558594 436.765625 196.113281 436.257812 195.695312 C 435.746094 195.277344 435.21875 194.882812 434.667969 194.515625 C 434.121094 194.148438 433.554688 193.808594 432.972656 193.5 C 432.394531 193.1875 431.796875 192.902344 431.1875 192.652344 C 430.578125 192.398438 429.957031 192.175781 429.328125 191.980469 C 428.695312 191.789062 428.058594 191.628906 427.410156 191.496094 C 426.765625 191.367188 426.113281 191.269531 425.457031 191.203125 C 424.800781 191.136719 424.140625 191.101562 423.480469 191.101562 Z M 423.480469 191.101562 " fill-opacity="1" fill-rule="nonzero"/></g><g clip-path="url(#f203cca40b)"><path fill="#000000" d="M 447.878906 154.433594 L 379.175781 154.433594 C 378.898438 154.433594 378.621094 154.40625 378.347656 154.351562 C 378.078125 154.296875 377.8125 154.21875 377.554688 154.109375 C 377.296875 154.003906 377.054688 153.875 376.824219 153.71875 C 376.589844 153.566406 376.378906 153.390625 376.179688 153.191406 C 375.984375 152.996094 375.808594 152.78125 375.652344 152.550781 C 375.5 152.320312 375.367188 152.074219 375.261719 151.816406 C 375.15625 151.5625 375.074219 151.296875 375.019531 151.023438 C 374.96875 150.75 374.941406 150.476562 374.941406 150.195312 L 374.941406 94.09375 C 374.941406 93.816406 374.96875 93.539062 375.019531 93.269531 C 375.074219 92.996094 375.15625 92.730469 375.261719 92.472656 C 375.367188 92.214844 375.5 91.972656 375.652344 91.742188 C 375.808594 91.507812 375.984375 91.296875 376.179688 91.097656 C 376.378906 90.902344 376.589844 90.726562 376.824219 90.570312 C 377.054688 90.417969 377.296875 90.285156 377.554688 90.179688 C 377.8125 90.074219 378.078125 89.992188 378.347656 89.9375 C 378.621094 89.882812 378.898438 89.859375 379.175781 89.859375 L 400.804688 89.859375 C 402.8125 89.851562 404.792969 90.097656 406.738281 90.589844 C 408.683594 91.082031 410.542969 91.808594 412.304688 92.769531 C 414.070312 93.730469 415.6875 94.894531 417.160156 96.261719 C 418.628906 97.628906 419.910156 99.15625 420.996094 100.847656 L 451.4375 147.910156 C 451.863281 148.558594 452.09375 149.273438 452.128906 150.050781 C 452.160156 150.828125 451.988281 151.558594 451.617188 152.242188 C 451.246094 152.921875 450.722656 153.460938 450.050781 153.855469 C 449.382812 154.25 448.65625 154.441406 447.878906 154.433594 Z M 383.410156 145.960938 L 440.085938 145.960938 L 413.878906 105.449219 C 413.175781 104.355469 412.347656 103.367188 411.394531 102.480469 C 410.441406 101.59375 409.394531 100.839844 408.253906 100.21875 C 407.109375 99.597656 405.910156 99.125 404.648438 98.808594 C 403.386719 98.488281 402.105469 98.328125 400.804688 98.332031 L 383.410156 98.332031 Z M 383.410156 145.960938 " fill-opacity="1" fill-rule="nonzero"/></g><path fill="#000000" d="M 298.78125 129.265625 L 254.503906 129.265625 C 254.226562 129.265625 253.949219 129.238281 253.679688 129.183594 C 253.40625 129.128906 253.140625 129.046875 252.882812 128.941406 C 252.625 128.835938 252.382812 128.703125 252.152344 128.550781 C 251.921875 128.394531 251.707031 128.21875 251.507812 128.023438 C 251.3125 127.828125 251.136719 127.613281 250.984375 127.382812 C 250.828125 127.148438 250.699219 126.90625 250.589844 126.648438 C 250.484375 126.390625 250.40625 126.125 250.351562 125.855469 C 250.296875 125.582031 250.269531 125.304688 250.269531 125.027344 C 250.269531 124.75 250.296875 124.472656 250.351562 124.199219 C 250.40625 123.925781 250.484375 123.664062 250.589844 123.40625 C 250.699219 123.148438 250.828125 122.902344 250.984375 122.671875 C 251.136719 122.441406 251.3125 122.226562 251.507812 122.03125 C 251.707031 121.832031 251.921875 121.660156 252.152344 121.503906 C 252.382812 121.347656 252.625 121.21875 252.882812 121.113281 C 253.140625 121.003906 253.40625 120.925781 253.679688 120.871094 C 253.949219 120.816406 254.226562 120.789062 254.503906 120.789062 L 298.78125 120.789062 C 299.058594 120.789062 299.335938 120.816406 299.609375 120.871094 C 299.882812 120.925781 300.144531 121.003906 300.402344 121.113281 C 300.660156 121.21875 300.902344 121.347656 301.136719 121.503906 C 301.367188 121.660156 301.582031 121.832031 301.777344 122.03125 C 301.972656 122.226562 302.148438 122.441406 302.304688 122.671875 C 302.457031 122.902344 302.589844 123.148438 302.695312 123.40625 C 302.800781 123.664062 302.882812 123.925781 302.9375 124.199219 C 302.992188 124.472656 303.015625 124.75 303.015625 125.027344 C 303.015625 125.304688 302.992188 125.582031 302.9375 125.855469 C 302.882812 126.125 302.800781 126.390625 302.695312 126.648438 C 302.589844 126.90625 302.457031 127.148438 302.304688 127.382812 C 302.148438 127.613281 301.972656 127.828125 301.777344 128.023438 C 301.582031 128.21875 301.367188 128.394531 301.136719 128.550781 C 300.902344 128.703125 300.660156 128.835938 300.402344 128.941406 C 300.144531 129.046875 299.882812 129.128906 299.609375 129.183594 C 299.335938 129.238281 299.058594 129.265625 298.78125 129.265625 Z M 298.78125 129.265625 " fill-opacity="1" fill-rule="nonzero"/><path fill="#000000" d="M 278.84375 160 L 226.238281 160 C 225.960938 160 225.683594 159.972656 225.410156 159.917969 C 225.140625 159.863281 224.875 159.78125 224.617188 159.675781 C 224.359375 159.570312 224.117188 159.4375 223.886719 159.285156 C 223.652344 159.128906 223.441406 158.953125 223.242188 158.757812 C 223.046875 158.5625 222.871094 158.347656 222.714844 158.117188 C 222.5625 157.882812 222.429688 157.640625 222.324219 157.382812 C 222.21875 157.125 222.136719 156.859375 222.082031 156.589844 C 222.03125 156.316406 222.003906 156.039062 222.003906 155.761719 C 222.003906 155.484375 222.03125 155.207031 222.082031 154.933594 C 222.136719 154.660156 222.21875 154.398438 222.324219 154.140625 C 222.429688 153.882812 222.5625 153.636719 222.714844 153.40625 C 222.871094 153.175781 223.046875 152.960938 223.242188 152.765625 C 223.441406 152.570312 223.652344 152.394531 223.886719 152.238281 C 224.117188 152.082031 224.359375 151.953125 224.617188 151.847656 C 224.875 151.738281 225.140625 151.660156 225.410156 151.605469 C 225.683594 151.550781 225.960938 151.523438 226.238281 151.523438 L 278.84375 151.523438 C 279.125 151.523438 279.398438 151.550781 279.671875 151.605469 C 279.945312 151.660156 280.210938 151.738281 280.464844 151.847656 C 280.722656 151.953125 280.96875 152.082031 281.199219 152.238281 C 281.429688 152.394531 281.644531 152.570312 281.839844 152.765625 C 282.039062 152.960938 282.214844 153.175781 282.367188 153.40625 C 282.523438 153.636719 282.652344 153.882812 282.757812 154.140625 C 282.867188 154.398438 282.945312 154.660156 283 154.933594 C 283.054688 155.207031 283.082031 155.484375 283.082031 155.761719 C 283.082031 156.039062 283.054688 156.316406 283 156.589844 C 282.945312 156.859375 282.867188 157.125 282.757812 157.382812 C 282.652344 157.640625 282.523438 157.882812 282.367188 158.117188 C 282.214844 158.347656 282.039062 158.5625 281.839844 158.757812 C 281.644531 158.953125 281.429688 159.128906 281.199219 159.285156 C 280.96875 159.4375 280.722656 159.570312 280.464844 159.675781 C 280.210938 159.78125 279.945312 159.863281 279.671875 159.917969 C 279.398438 159.972656 279.125 160 278.84375 160 Z M 278.84375 160 " fill-opacity="1" fill-rule="nonzero"/><path fill="#000000" d="M 273.988281 185.703125 L 242.390625 185.703125 C 242.113281 185.703125 241.835938 185.675781 241.5625 185.625 C 241.292969 185.570312 241.027344 185.488281 240.769531 185.382812 C 240.511719 185.277344 240.269531 185.144531 240.035156 184.992188 C 239.804688 184.835938 239.59375 184.660156 239.394531 184.464844 C 239.199219 184.265625 239.023438 184.054688 238.867188 183.820312 C 238.714844 183.589844 238.582031 183.347656 238.476562 183.089844 C 238.371094 182.832031 238.289062 182.566406 238.234375 182.292969 C 238.183594 182.019531 238.15625 181.746094 238.15625 181.46875 C 238.15625 181.1875 238.183594 180.914062 238.234375 180.640625 C 238.289062 180.367188 238.371094 180.101562 238.476562 179.847656 C 238.582031 179.589844 238.714844 179.34375 238.867188 179.113281 C 239.023438 178.882812 239.199219 178.667969 239.394531 178.472656 C 239.59375 178.273438 239.804688 178.097656 240.035156 177.945312 C 240.269531 177.789062 240.511719 177.660156 240.769531 177.554688 C 241.027344 177.445312 241.292969 177.367188 241.5625 177.3125 C 241.835938 177.257812 242.113281 177.230469 242.390625 177.230469 L 273.988281 177.230469 C 274.265625 177.230469 274.542969 177.257812 274.816406 177.3125 C 275.085938 177.367188 275.351562 177.445312 275.609375 177.554688 C 275.867188 177.660156 276.109375 177.789062 276.34375 177.945312 C 276.574219 178.097656 276.789062 178.273438 276.984375 178.472656 C 277.179688 178.667969 277.355469 178.882812 277.511719 179.113281 C 277.664062 179.34375 277.796875 179.589844 277.902344 179.847656 C 278.007812 180.101562 278.089844 180.367188 278.144531 180.640625 C 278.199219 180.914062 278.222656 181.1875 278.222656 181.46875 C 278.222656 181.746094 278.199219 182.019531 278.144531 182.292969 C 278.089844 182.566406 278.007812 182.832031 277.902344 183.089844 C 277.796875 183.347656 277.664062 183.589844 277.511719 183.820312 C 277.355469 184.054688 277.179688 184.265625 276.984375 184.464844 C 276.789062 184.660156 276.574219 184.835938 276.34375 184.992188 C 276.109375 185.144531 275.867188 185.277344 275.609375 185.382812 C 275.351562 185.488281 275.085938 185.570312 274.816406 185.625 C 274.542969 185.675781 274.265625 185.703125 273.988281 185.703125 Z M 273.988281 185.703125 " fill-opacity="1" fill-rule="nonzero"/><g fill="#000000" fill-opacity="1"><g transform="translate(221.233515, 293.378798)"><g><path d="M 42.015625 -7.953125 L 46.03125 0 L 37.109375 0 L 33.03125 -7.953125 L 23.359375 -27.046875 L 13.625 -7.953125 L 9.546875 0 L 0.640625 0 L 4.703125 -7.953125 L 23.359375 -44.5625 Z M 42.015625 -7.953125 "/></g></g></g><g fill="#000000" fill-opacity="1"><g transform="translate(267.948593, 293.378798)"><g><path d="M 15.21875 -44.5625 L 47.75 -44.5625 L 47.75 -36.609375 L 15.21875 -36.609375 C 14.070312 -36.609375 13.101562 -36.203125 12.3125 -35.390625 C 11.53125 -34.585938 11.140625 -33.632812 11.140625 -32.53125 L 11.140625 -28.390625 L 39.78125 -28.390625 L 39.78125 -20.4375 L 11.078125 -20.4375 L 11.078125 0 L 3.1875 0 L 3.1875 -32.53125 C 3.1875 -34.738281 3.722656 -36.753906 4.796875 -38.578125 C 5.878906 -40.398438 7.332031 -41.851562 9.15625 -42.9375 C 10.988281 -44.019531 13.007812 -44.5625 15.21875 -44.5625 Z M 15.21875 -44.5625 "/></g></g></g><g fill="#000000" fill-opacity="1"><g transform="translate(318.864212, 293.378798)"><g><path d="M 16.546875 -7.953125 L 39.90625 -7.953125 L 39.90625 0 L 17.375 0 C 15.164062 0 13.085938 -0.488281 11.140625 -1.46875 C 8.210938 -2.90625 6.046875 -5.066406 4.640625 -7.953125 C 3.671875 -9.910156 3.1875 -11.992188 3.1875 -14.203125 L 3.1875 -44.5625 L 11.140625 -44.5625 L 11.140625 -13.4375 C 11.304688 -11.988281 11.898438 -10.753906 12.921875 -9.734375 C 13.941406 -8.722656 15.148438 -8.128906 16.546875 -7.953125 Z M 16.546875 -7.953125 "/></g></g></g><g fill="#000000" fill-opacity="1"><g transform="translate(361.951558, 293.378798)"><g><path d="M 15.21875 -36.609375 C 14.070312 -36.609375 13.101562 -36.203125 12.3125 -35.390625 C 11.53125 -34.585938 11.140625 -33.632812 11.140625 -32.53125 L 11.140625 -28.390625 L 39.78125 -28.390625 L 39.78125 -20.4375 L 11.140625 -20.4375 L 11.140625 -12.03125 C 11.140625 -10.925781 11.53125 -9.96875 12.3125 -9.15625 C 13.101562 -8.351562 14.070312 -7.953125 15.21875 -7.953125 L 47.75 -7.953125 L 47.75 0 L 15.21875 0 C 13.007812 0 10.988281 -0.539062 9.15625 -1.625 C 7.332031 -2.707031 5.878906 -4.160156 4.796875 -5.984375 C 3.722656 -7.804688 3.1875 -9.820312 3.1875 -12.03125 L 3.1875 -32.53125 C 3.1875 -34.738281 3.722656 -36.753906 4.796875 -38.578125 C 5.878906 -40.398438 7.332031 -41.851562 9.15625 -42.9375 C 10.988281 -44.019531 13.007812 -44.5625 15.21875 -44.5625 L 47.75 -44.5625 L 47.75 -36.609375 Z M 15.21875 -36.609375 "/></g></g></g><g fill="#000000" fill-opacity="1"><g transform="translate(412.867178, 293.378798)"><g><path d="M 15.21875 -36.609375 C 14.070312 -36.609375 13.101562 -36.203125 12.3125 -35.390625 C 11.53125 -34.585938 11.140625 -33.632812 11.140625 -32.53125 L 11.140625 -28.390625 L 39.78125 -28.390625 L 39.78125 -20.4375 L 11.140625 -20.4375 L 11.140625 -12.03125 C 11.140625 -10.925781 11.53125 -9.96875 12.3125 -9.15625 C 13.101562 -8.351562 14.070312 -7.953125 15.21875 -7.953125 L 47.75 -7.953125 L 47.75 0 L 15.21875 0 C 13.007812 0 10.988281 -0.539062 9.15625 -1.625 C 7.332031 -2.707031 5.878906 -4.160156 4.796875 -5.984375 C 3.722656 -7.804688 3.1875 -9.820312 3.1875 -12.03125 L 3.1875 -32.53125 C 3.1875 -34.738281 3.722656 -36.753906 4.796875 -38.578125 C 5.878906 -40.398438 7.332031 -41.851562 9.15625 -42.9375 C 10.988281 -44.019531 13.007812 -44.5625 15.21875 -44.5625 L 47.75 -44.5625 L 47.75 -36.609375 Z M 15.21875 -36.609375 "/></g></g></g><g fill="#000000" fill-opacity="1"><g transform="translate(463.782786, 293.378798)"><g><path d="M 3.1875 -44.5 L 47.75 -44.5 L 47.75 -36.609375 L 29.40625 -36.609375 L 29.40625 0 L 21.453125 0 L 21.453125 -36.609375 L 3.1875 -36.609375 Z M 3.1875 -44.5 "/></g></g></g></svg>