<svg xmlns="http://www.w3.org/2000/svg" xmlns:xlink="http://www.w3.org/1999/xlink" width="1000" zoomAndPan="magnify" viewBox="0 0 750 374.999991" height="500" preserveAspectRatio="xMidYMid meet" version="1.0"><defs><g/><clipPath id="bd6521633b"><path d="M 279 89.746094 L 473 89.746094 L 473 215 L 279 215 Z M 279 89.746094 " clip-rule="nonzero"/></clipPath><clipPath id="d6da665ccf"><path d="M 289 182 L 347 182 L 347 239.746094 L 289 239.746094 Z M 289 182 " clip-rule="nonzero"/></clipPath><clipPath id="992ed78258"><path d="M 394 182 L 453 182 L 453 239.746094 L 394 239.746094 Z M 394 182 " clip-rule="nonzero"/></clipPath><clipPath id="e8022adc6e"><path d="M 374 89.746094 L 453 89.746094 L 453 155 L 374 155 Z M 374 89.746094 " clip-rule="nonzero"/></clipPath></defs><path fill="#ffffff" d="M 293.554688 214.574219 L 267.511719 214.574219 C 267.234375 214.574219 266.957031 214.546875 266.683594 214.492188 C 266.410156 214.4375 266.148438 214.359375 265.890625 214.253906 C 265.632812 214.144531 265.386719 214.015625 265.15625 213.859375 C 264.925781 213.707031 264.710938 213.53125 264.515625 213.332031 C 264.316406 213.136719 264.140625 212.921875 263.988281 212.691406 C 263.832031 212.460938 263.703125 212.214844 263.597656 211.960938 C 263.488281 211.703125 263.410156 211.4375 263.355469 211.164062 C 263.300781 210.890625 263.273438 210.617188 263.273438 210.335938 C 263.273438 210.058594 263.300781 209.785156 263.355469 209.511719 C 263.410156 209.238281 263.488281 208.972656 263.597656 208.714844 C 263.703125 208.460938 263.832031 208.214844 263.988281 207.984375 C 264.140625 207.753906 264.316406 207.539062 264.515625 207.339844 C 264.710938 207.144531 264.925781 206.96875 265.15625 206.816406 C 265.386719 206.660156 265.632812 206.53125 265.890625 206.421875 C 266.148438 206.316406 266.410156 206.234375 266.683594 206.183594 C 266.957031 206.128906 267.234375 206.101562 267.511719 206.101562 L 293.554688 206.101562 C 293.835938 206.101562 294.109375 206.128906 294.382812 206.183594 C 294.65625 206.234375 294.921875 206.316406 295.179688 206.421875 C 295.433594 206.53125 295.679688 206.660156 295.910156 206.8125 C 296.140625 206.96875 296.355469 207.144531 296.550781 207.339844 C 296.75 207.539062 296.925781 207.753906 297.078125 207.984375 C 297.234375 208.214844 297.363281 208.460938 297.472656 208.714844 C 297.578125 208.972656 297.65625 209.238281 297.710938 209.511719 C 297.765625 209.785156 297.792969 210.058594 297.792969 210.335938 C 297.792969 210.617188 297.765625 210.890625 297.710938 211.164062 C 297.65625 211.4375 297.578125 211.703125 297.472656 211.960938 C 297.363281 212.214844 297.234375 212.460938 297.078125 212.691406 C 296.925781 212.921875 296.75 213.136719 296.550781 213.332031 C 296.355469 213.53125 296.140625 213.707031 295.910156 213.859375 C 295.679688 214.015625 295.433594 214.144531 295.179688 214.253906 C 294.921875 214.359375 294.65625 214.4375 294.382812 214.492188 C 294.109375 214.546875 293.835938 214.574219 293.554688 214.574219 Z M 293.554688 214.574219 " fill-opacity="1" fill-rule="nonzero"/><path fill="#ffffff" d="M 399.234375 214.574219 L 342.339844 214.574219 C 342.0625 214.574219 341.789062 214.546875 341.515625 214.492188 C 341.242188 214.4375 340.976562 214.359375 340.71875 214.253906 C 340.464844 214.144531 340.21875 214.015625 339.988281 213.859375 C 339.757812 213.707031 339.542969 213.53125 339.34375 213.332031 C 339.148438 213.136719 338.972656 212.921875 338.820312 212.691406 C 338.664062 212.460938 338.535156 212.214844 338.425781 211.960938 C 338.320312 211.703125 338.238281 211.4375 338.1875 211.164062 C 338.132812 210.890625 338.105469 210.617188 338.105469 210.335938 C 338.105469 210.058594 338.132812 209.785156 338.1875 209.511719 C 338.238281 209.238281 338.320312 208.972656 338.425781 208.714844 C 338.535156 208.460938 338.664062 208.214844 338.820312 207.984375 C 338.972656 207.753906 339.148438 207.539062 339.34375 207.339844 C 339.542969 207.144531 339.757812 206.96875 339.988281 206.816406 C 340.21875 206.660156 340.464844 206.53125 340.71875 206.421875 C 340.976562 206.316406 341.242188 206.234375 341.515625 206.183594 C 341.789062 206.128906 342.0625 206.101562 342.339844 206.101562 L 399.234375 206.101562 C 399.511719 206.101562 399.789062 206.128906 400.0625 206.183594 C 400.332031 206.234375 400.597656 206.316406 400.855469 206.421875 C 401.113281 206.53125 401.355469 206.660156 401.589844 206.8125 C 401.820312 206.96875 402.035156 207.144531 402.230469 207.339844 C 402.425781 207.539062 402.601562 207.753906 402.757812 207.984375 C 402.910156 208.214844 403.042969 208.460938 403.148438 208.714844 C 403.253906 208.972656 403.335938 209.238281 403.390625 209.511719 C 403.445312 209.785156 403.472656 210.058594 403.472656 210.335938 C 403.472656 210.617188 403.445312 210.890625 403.390625 211.164062 C 403.335938 211.4375 403.253906 211.703125 403.148438 211.960938 C 403.042969 212.214844 402.910156 212.460938 402.757812 212.691406 C 402.601562 212.921875 402.425781 213.136719 402.230469 213.332031 C 402.035156 213.53125 401.820312 213.707031 401.589844 213.859375 C 401.355469 214.015625 401.113281 214.144531 400.855469 214.253906 C 400.597656 214.359375 400.332031 214.4375 400.0625 214.492188 C 399.789062 214.546875 399.511719 214.574219 399.234375 214.574219 Z M 399.234375 214.574219 " fill-opacity="1" fill-rule="nonzero"/><g clip-path="url(#bd6521633b)"><path fill="#ffffff" d="M 468.359375 214.574219 L 447.964844 214.574219 C 447.683594 214.574219 447.410156 214.546875 447.136719 214.492188 C 446.863281 214.4375 446.597656 214.359375 446.339844 214.253906 C 446.085938 214.144531 445.839844 214.015625 445.609375 213.859375 C 445.378906 213.707031 445.164062 213.53125 444.96875 213.332031 C 444.769531 213.136719 444.59375 212.921875 444.441406 212.691406 C 444.285156 212.460938 444.15625 212.214844 444.046875 211.960938 C 443.941406 211.703125 443.863281 211.4375 443.808594 211.164062 C 443.753906 210.890625 443.726562 210.617188 443.726562 210.335938 C 443.726562 210.058594 443.753906 209.785156 443.808594 209.511719 C 443.863281 209.238281 443.941406 208.972656 444.046875 208.714844 C 444.15625 208.460938 444.285156 208.214844 444.441406 207.984375 C 444.59375 207.753906 444.769531 207.539062 444.96875 207.339844 C 445.164062 207.144531 445.378906 206.96875 445.609375 206.816406 C 445.839844 206.660156 446.085938 206.53125 446.339844 206.421875 C 446.597656 206.316406 446.863281 206.234375 447.136719 206.183594 C 447.410156 206.128906 447.683594 206.101562 447.964844 206.101562 L 464.207031 206.101562 L 464.207031 173.277344 C 464.207031 172.214844 464.082031 171.167969 463.832031 170.136719 C 463.578125 169.109375 463.207031 168.121094 462.714844 167.183594 C 462.222656 166.242188 461.625 165.375 460.921875 164.582031 C 460.21875 163.785156 459.429688 163.085938 458.554688 162.484375 L 445.5625 153.699219 C 445.105469 153.375 444.71875 152.976562 444.402344 152.511719 L 413.554688 104.855469 C 412.914062 103.851562 412.15625 102.941406 411.285156 102.128906 C 410.414062 101.316406 409.453125 100.625 408.40625 100.054688 C 407.359375 99.484375 406.257812 99.050781 405.101562 98.761719 C 403.945312 98.46875 402.773438 98.324219 401.578125 98.332031 L 283.414062 98.332031 C 283.136719 98.332031 282.863281 98.304688 282.589844 98.25 C 282.316406 98.195312 282.050781 98.117188 281.792969 98.007812 C 281.535156 97.902344 281.292969 97.773438 281.0625 97.617188 C 280.828125 97.464844 280.617188 97.289062 280.417969 97.089844 C 280.222656 96.894531 280.046875 96.679688 279.890625 96.449219 C 279.738281 96.21875 279.605469 95.972656 279.5 95.714844 C 279.394531 95.460938 279.3125 95.195312 279.257812 94.921875 C 279.203125 94.648438 279.179688 94.371094 279.179688 94.09375 C 279.179688 93.816406 279.203125 93.539062 279.257812 93.269531 C 279.3125 92.996094 279.394531 92.730469 279.5 92.472656 C 279.605469 92.214844 279.738281 91.972656 279.890625 91.742188 C 280.046875 91.507812 280.222656 91.296875 280.417969 91.097656 C 280.617188 90.902344 280.828125 90.726562 281.0625 90.570312 C 281.292969 90.417969 281.535156 90.285156 281.792969 90.179688 C 282.050781 90.074219 282.316406 89.992188 282.589844 89.9375 C 282.863281 89.882812 283.136719 89.859375 283.414062 89.859375 L 401.578125 89.859375 C 403.480469 89.851562 405.351562 90.082031 407.191406 90.546875 C 409.035156 91.011719 410.789062 91.699219 412.460938 92.609375 C 414.128906 93.515625 415.660156 94.617188 417.050781 95.914062 C 418.441406 97.207031 419.648438 98.652344 420.675781 100.253906 L 451.042969 147.171875 L 463.1875 155.480469 C 464.644531 156.460938 465.960938 157.605469 467.140625 158.914062 C 468.316406 160.21875 469.316406 161.648438 470.144531 163.199219 C 470.972656 164.75 471.601562 166.378906 472.027344 168.082031 C 472.457031 169.785156 472.675781 171.519531 472.679688 173.277344 L 472.679688 210.335938 C 472.679688 210.621094 472.652344 210.898438 472.597656 211.175781 C 472.542969 211.449219 472.460938 211.71875 472.351562 211.980469 C 472.242188 212.238281 472.105469 212.484375 471.949219 212.71875 C 471.789062 212.953125 471.609375 213.167969 471.410156 213.363281 C 471.207031 213.5625 470.988281 213.738281 470.753906 213.890625 C 470.515625 214.042969 470.269531 214.171875 470.007812 214.277344 C 469.746094 214.382812 469.472656 214.457031 469.195312 214.507812 C 468.921875 214.558594 468.640625 214.582031 468.359375 214.574219 Z M 468.359375 214.574219 " fill-opacity="1" fill-rule="nonzero"/></g><g clip-path="url(#d6da665ccf)"><path fill="#ffffff" d="M 317.933594 239.914062 C 316.996094 239.914062 316.0625 239.867188 315.128906 239.777344 C 314.195312 239.683594 313.265625 239.546875 312.347656 239.363281 C 311.425781 239.179688 310.519531 238.953125 309.621094 238.679688 C 308.722656 238.40625 307.839844 238.09375 306.972656 237.734375 C 306.105469 237.375 305.257812 236.972656 304.433594 236.53125 C 303.605469 236.089844 302.800781 235.609375 302.019531 235.085938 C 301.242188 234.566406 300.488281 234.007812 299.761719 233.410156 C 299.039062 232.816406 298.34375 232.1875 297.679688 231.523438 C 297.015625 230.859375 296.386719 230.167969 295.792969 229.441406 C 295.199219 228.714844 294.640625 227.964844 294.117188 227.183594 C 293.597656 226.402344 293.117188 225.601562 292.671875 224.773438 C 292.230469 223.945312 291.832031 223.097656 291.472656 222.230469 C 291.113281 221.363281 290.796875 220.484375 290.523438 219.585938 C 290.25 218.6875 290.023438 217.777344 289.839844 216.859375 C 289.660156 215.9375 289.519531 215.011719 289.429688 214.078125 C 289.335938 213.144531 289.289062 212.207031 289.289062 211.269531 C 289.289062 210.332031 289.335938 209.394531 289.429688 208.460938 C 289.519531 207.527344 289.660156 206.601562 289.839844 205.683594 C 290.023438 204.761719 290.25 203.851562 290.523438 202.953125 C 290.796875 202.058594 291.113281 201.175781 291.472656 200.308594 C 291.832031 199.441406 292.230469 198.59375 292.671875 197.765625 C 293.117188 196.941406 293.597656 196.136719 294.117188 195.355469 C 294.640625 194.574219 295.199219 193.824219 295.792969 193.097656 C 296.386719 192.375 297.015625 191.679688 297.679688 191.015625 C 298.34375 190.351562 299.039062 189.722656 299.761719 189.128906 C 300.488281 188.53125 301.242188 187.972656 302.019531 187.453125 C 302.800781 186.933594 303.605469 186.449219 304.433594 186.007812 C 305.257812 185.566406 306.105469 185.164062 306.972656 184.804688 C 307.839844 184.445312 308.722656 184.132812 309.621094 183.859375 C 310.519531 183.585938 311.425781 183.359375 312.347656 183.175781 C 313.265625 182.992188 314.195312 182.855469 315.128906 182.765625 C 316.0625 182.671875 316.996094 182.625 317.933594 182.625 C 318.871094 182.625 319.808594 182.671875 320.742188 182.765625 C 321.675781 182.855469 322.601562 182.992188 323.523438 183.175781 C 324.441406 183.359375 325.351562 183.585938 326.25 183.859375 C 327.148438 184.132812 328.03125 184.445312 328.898438 184.804688 C 329.761719 185.164062 330.609375 185.566406 331.4375 186.007812 C 332.265625 186.449219 333.070312 186.933594 333.847656 187.453125 C 334.628906 187.972656 335.382812 188.53125 336.105469 189.128906 C 336.832031 189.722656 337.527344 190.351562 338.1875 191.015625 C 338.851562 191.679688 339.480469 192.375 340.078125 193.097656 C 340.671875 193.824219 341.230469 194.574219 341.75 195.355469 C 342.273438 196.136719 342.753906 196.941406 343.195312 197.765625 C 343.640625 198.59375 344.039062 199.441406 344.398438 200.308594 C 344.757812 201.175781 345.074219 202.058594 345.34375 202.953125 C 345.617188 203.851562 345.84375 204.761719 346.027344 205.683594 C 346.210938 206.601562 346.347656 207.527344 346.441406 208.460938 C 346.53125 209.394531 346.578125 210.332031 346.578125 211.269531 C 346.578125 212.207031 346.53125 213.144531 346.441406 214.078125 C 346.347656 215.011719 346.210938 215.9375 346.027344 216.859375 C 345.84375 217.777344 345.617188 218.6875 345.34375 219.585938 C 345.074219 220.484375 344.757812 221.363281 344.398438 222.230469 C 344.039062 223.097656 343.640625 223.945312 343.195312 224.773438 C 342.753906 225.601562 342.273438 226.402344 341.75 227.183594 C 341.230469 227.964844 340.671875 228.714844 340.078125 229.441406 C 339.480469 230.167969 338.851562 230.859375 338.1875 231.523438 C 337.527344 232.1875 336.832031 232.816406 336.105469 233.410156 C 335.382812 234.007812 334.628906 234.566406 333.847656 235.085938 C 333.070312 235.609375 332.265625 236.089844 331.4375 236.53125 C 330.609375 236.972656 329.761719 237.375 328.898438 237.734375 C 328.03125 238.09375 327.148438 238.40625 326.25 238.679688 C 325.351562 238.953125 324.441406 239.179688 323.523438 239.363281 C 322.601562 239.546875 321.675781 239.683594 320.742188 239.777344 C 319.808594 239.867188 318.871094 239.914062 317.933594 239.914062 Z M 317.933594 191.101562 C 317.273438 191.101562 316.617188 191.132812 315.957031 191.199219 C 315.300781 191.261719 314.648438 191.359375 314 191.488281 C 313.351562 191.617188 312.710938 191.777344 312.078125 191.96875 C 311.449219 192.160156 310.828125 192.382812 310.214844 192.636719 C 309.605469 192.886719 309.007812 193.171875 308.425781 193.480469 C 307.84375 193.792969 307.277344 194.132812 306.730469 194.5 C 306.179688 194.867188 305.648438 195.257812 305.140625 195.679688 C 304.628906 196.097656 304.140625 196.539062 303.671875 197.007812 C 303.207031 197.476562 302.761719 197.964844 302.34375 198.472656 C 301.925781 198.984375 301.53125 199.515625 301.164062 200.0625 C 300.796875 200.613281 300.457031 201.179688 300.148438 201.761719 C 299.835938 202.34375 299.554688 202.941406 299.300781 203.550781 C 299.046875 204.160156 298.824219 204.78125 298.632812 205.414062 C 298.441406 206.046875 298.28125 206.6875 298.152344 207.335938 C 298.023438 207.984375 297.925781 208.636719 297.863281 209.292969 C 297.796875 209.949219 297.765625 210.609375 297.765625 211.269531 C 297.765625 211.929688 297.796875 212.589844 297.863281 213.246094 C 297.925781 213.902344 298.023438 214.558594 298.152344 215.203125 C 298.28125 215.851562 298.441406 216.492188 298.632812 217.125 C 298.824219 217.757812 299.046875 218.378906 299.300781 218.988281 C 299.554688 219.597656 299.835938 220.195312 300.148438 220.777344 C 300.457031 221.359375 300.796875 221.925781 301.164062 222.476562 C 301.53125 223.023438 301.925781 223.554688 302.34375 224.066406 C 302.761719 224.574219 303.207031 225.066406 303.671875 225.53125 C 304.140625 226 304.628906 226.441406 305.140625 226.859375 C 305.648438 227.28125 306.179688 227.671875 306.730469 228.039062 C 307.277344 228.40625 307.84375 228.746094 308.425781 229.058594 C 309.007812 229.367188 309.605469 229.652344 310.214844 229.902344 C 310.828125 230.15625 311.449219 230.378906 312.078125 230.570312 C 312.710938 230.761719 313.351562 230.921875 314 231.050781 C 314.648438 231.179688 315.300781 231.277344 315.957031 231.34375 C 316.617188 231.40625 317.273438 231.4375 317.933594 231.4375 C 318.59375 231.4375 319.253906 231.40625 319.910156 231.34375 C 320.570312 231.277344 321.222656 231.179688 321.871094 231.050781 C 322.519531 230.921875 323.15625 230.761719 323.789062 230.570312 C 324.421875 230.378906 325.042969 230.15625 325.652344 229.902344 C 326.265625 229.652344 326.859375 229.367188 327.441406 229.058594 C 328.023438 228.746094 328.589844 228.40625 329.140625 228.039062 C 329.691406 227.671875 330.21875 227.28125 330.730469 226.859375 C 331.242188 226.441406 331.730469 226 332.195312 225.53125 C 332.664062 225.066406 333.105469 224.574219 333.527344 224.066406 C 333.945312 223.554688 334.339844 223.023438 334.707031 222.476562 C 335.070312 221.925781 335.410156 221.359375 335.722656 220.777344 C 336.035156 220.195312 336.316406 219.597656 336.570312 218.988281 C 336.820312 218.378906 337.042969 217.757812 337.234375 217.125 C 337.425781 216.492188 337.589844 215.851562 337.71875 215.203125 C 337.847656 214.558594 337.941406 213.902344 338.007812 213.246094 C 338.070312 212.589844 338.105469 211.929688 338.105469 211.269531 C 338.101562 210.609375 338.070312 209.949219 338.003906 209.292969 C 337.9375 208.636719 337.839844 207.984375 337.710938 207.335938 C 337.582031 206.6875 337.421875 206.050781 337.230469 205.417969 C 337.039062 204.785156 336.816406 204.164062 336.5625 203.554688 C 336.308594 202.945312 336.027344 202.351562 335.714844 201.769531 C 335.402344 201.183594 335.0625 200.621094 334.695312 200.070312 C 334.328125 199.523438 333.9375 198.992188 333.515625 198.480469 C 333.097656 197.972656 332.65625 197.484375 332.1875 197.015625 C 331.722656 196.550781 331.234375 196.105469 330.722656 195.6875 C 330.210938 195.269531 329.683594 194.875 329.132812 194.507812 C 328.585938 194.140625 328.019531 193.800781 327.4375 193.492188 C 326.855469 193.179688 326.257812 192.894531 325.648438 192.644531 C 325.039062 192.390625 324.417969 192.167969 323.785156 191.976562 C 323.15625 191.78125 322.515625 191.621094 321.867188 191.492188 C 321.21875 191.363281 320.566406 191.265625 319.910156 191.199219 C 319.253906 191.132812 318.59375 191.101562 317.933594 191.101562 Z M 317.933594 191.101562 " fill-opacity="1" fill-rule="nonzero"/></g><g clip-path="url(#992ed78258)"><path fill="#ffffff" d="M 423.554688 239.914062 C 422.617188 239.914062 421.683594 239.867188 420.75 239.777344 C 419.816406 239.683594 418.886719 239.546875 417.96875 239.363281 C 417.046875 239.179688 416.140625 238.953125 415.242188 238.679688 C 414.34375 238.40625 413.460938 238.09375 412.59375 237.734375 C 411.726562 237.375 410.882812 236.972656 410.054688 236.53125 C 409.226562 236.089844 408.421875 235.609375 407.644531 235.085938 C 406.863281 234.566406 406.109375 234.007812 405.386719 233.410156 C 404.660156 232.816406 403.964844 232.1875 403.300781 231.523438 C 402.636719 230.859375 402.007812 230.167969 401.414062 229.441406 C 400.820312 228.714844 400.261719 227.964844 399.738281 227.183594 C 399.21875 226.402344 398.738281 225.601562 398.292969 224.773438 C 397.851562 223.945312 397.453125 223.097656 397.09375 222.230469 C 396.734375 221.363281 396.417969 220.484375 396.144531 219.585938 C 395.875 218.6875 395.644531 217.777344 395.460938 216.859375 C 395.28125 215.9375 395.140625 215.011719 395.050781 214.078125 C 394.957031 213.144531 394.914062 212.207031 394.914062 211.269531 C 394.914062 210.332031 394.957031 209.394531 395.050781 208.460938 C 395.140625 207.527344 395.28125 206.601562 395.460938 205.683594 C 395.644531 204.761719 395.875 203.851562 396.144531 202.953125 C 396.417969 202.058594 396.734375 201.175781 397.09375 200.308594 C 397.453125 199.441406 397.851562 198.59375 398.292969 197.765625 C 398.738281 196.941406 399.21875 196.136719 399.738281 195.355469 C 400.261719 194.574219 400.820312 193.824219 401.414062 193.097656 C 402.007812 192.375 402.636719 191.679688 403.300781 191.015625 C 403.964844 190.351562 404.660156 189.722656 405.386719 189.128906 C 406.109375 188.53125 406.863281 187.972656 407.644531 187.453125 C 408.421875 186.933594 409.226562 186.449219 410.054688 186.007812 C 410.882812 185.566406 411.726562 185.164062 412.59375 184.804688 C 413.460938 184.445312 414.34375 184.132812 415.242188 183.859375 C 416.140625 183.585938 417.046875 183.359375 417.96875 183.175781 C 418.886719 182.992188 419.816406 182.855469 420.75 182.765625 C 421.683594 182.671875 422.617188 182.625 423.554688 182.625 C 424.496094 182.625 425.429688 182.671875 426.363281 182.765625 C 427.296875 182.855469 428.222656 182.992188 429.144531 183.175781 C 430.066406 183.359375 430.972656 183.585938 431.871094 183.859375 C 432.769531 184.132812 433.652344 184.445312 434.519531 184.804688 C 435.382812 185.164062 436.230469 185.566406 437.058594 186.007812 C 437.886719 186.449219 438.691406 186.933594 439.46875 187.453125 C 440.25 187.972656 441.003906 188.53125 441.726562 189.128906 C 442.453125 189.722656 443.148438 190.351562 443.8125 191.015625 C 444.472656 191.679688 445.101562 192.375 445.699219 193.097656 C 446.292969 193.824219 446.851562 194.574219 447.371094 195.355469 C 447.894531 196.136719 448.375 196.941406 448.816406 197.765625 C 449.261719 198.59375 449.660156 199.441406 450.019531 200.308594 C 450.378906 201.175781 450.695312 202.058594 450.96875 202.953125 C 451.238281 203.851562 451.46875 204.761719 451.648438 205.683594 C 451.832031 206.601562 451.96875 207.527344 452.0625 208.460938 C 452.15625 209.394531 452.199219 210.332031 452.199219 211.269531 C 452.199219 212.207031 452.152344 213.144531 452.058594 214.078125 C 451.96875 215.011719 451.828125 215.9375 451.644531 216.855469 C 451.460938 217.777344 451.234375 218.683594 450.960938 219.582031 C 450.6875 220.480469 450.371094 221.359375 450.011719 222.226562 C 449.652344 223.09375 449.253906 223.941406 448.808594 224.765625 C 448.367188 225.59375 447.886719 226.398438 447.363281 227.175781 C 446.84375 227.957031 446.285156 228.707031 445.691406 229.433594 C 445.09375 230.160156 444.464844 230.851562 443.800781 231.515625 C 443.140625 232.179688 442.445312 232.808594 441.71875 233.402344 C 440.996094 234 440.242188 234.554688 439.464844 235.078125 C 438.683594 235.597656 437.878906 236.082031 437.054688 236.523438 C 436.226562 236.964844 435.378906 237.367188 434.511719 237.726562 C 433.648438 238.085938 432.765625 238.402344 431.867188 238.675781 C 430.972656 238.945312 430.0625 239.175781 429.144531 239.359375 C 428.222656 239.542969 427.296875 239.679688 426.363281 239.773438 C 425.429688 239.867188 424.496094 239.914062 423.554688 239.914062 Z M 423.554688 191.101562 C 422.894531 191.101562 422.238281 191.132812 421.578125 191.199219 C 420.921875 191.261719 420.269531 191.359375 419.621094 191.488281 C 418.972656 191.617188 418.332031 191.777344 417.703125 191.96875 C 417.070312 192.160156 416.449219 192.382812 415.835938 192.636719 C 415.226562 192.886719 414.632812 193.171875 414.046875 193.480469 C 413.464844 193.792969 412.898438 194.132812 412.351562 194.5 C 411.800781 194.867188 411.273438 195.257812 410.761719 195.679688 C 410.25 196.097656 409.761719 196.539062 409.292969 197.007812 C 408.828125 197.476562 408.382812 197.964844 407.964844 198.472656 C 407.546875 198.984375 407.152344 199.515625 406.785156 200.0625 C 406.417969 200.613281 406.078125 201.179688 405.769531 201.761719 C 405.457031 202.34375 405.175781 202.941406 404.921875 203.550781 C 404.667969 204.160156 404.445312 204.78125 404.253906 205.414062 C 404.0625 206.046875 403.902344 206.6875 403.773438 207.335938 C 403.644531 207.984375 403.546875 208.636719 403.484375 209.292969 C 403.417969 209.949219 403.386719 210.609375 403.386719 211.269531 C 403.386719 211.929688 403.417969 212.589844 403.484375 213.246094 C 403.546875 213.902344 403.644531 214.558594 403.773438 215.203125 C 403.902344 215.851562 404.0625 216.492188 404.253906 217.125 C 404.445312 217.757812 404.667969 218.378906 404.921875 218.988281 C 405.175781 219.597656 405.457031 220.195312 405.769531 220.777344 C 406.078125 221.359375 406.417969 221.925781 406.785156 222.476562 C 407.152344 223.023438 407.546875 223.554688 407.964844 224.066406 C 408.382812 224.574219 408.828125 225.066406 409.292969 225.53125 C 409.761719 226 410.25 226.441406 410.761719 226.859375 C 411.273438 227.28125 411.800781 227.671875 412.351562 228.039062 C 412.898438 228.40625 413.464844 228.746094 414.046875 229.058594 C 414.632812 229.367188 415.226562 229.652344 415.835938 229.902344 C 416.449219 230.15625 417.070312 230.378906 417.703125 230.570312 C 418.332031 230.761719 418.972656 230.921875 419.621094 231.050781 C 420.269531 231.179688 420.921875 231.277344 421.578125 231.34375 C 422.238281 231.40625 422.894531 231.4375 423.554688 231.4375 C 424.21875 231.4375 424.875 231.40625 425.535156 231.34375 C 426.191406 231.277344 426.84375 231.179688 427.492188 231.050781 C 428.140625 230.921875 428.777344 230.761719 429.410156 230.570312 C 430.042969 230.378906 430.664062 230.15625 431.273438 229.902344 C 431.886719 229.652344 432.480469 229.367188 433.0625 229.058594 C 433.648438 228.746094 434.210938 228.40625 434.761719 228.039062 C 435.3125 227.671875 435.839844 227.28125 436.351562 226.859375 C 436.863281 226.441406 437.351562 226 437.816406 225.53125 C 438.285156 225.066406 438.730469 224.574219 439.148438 224.066406 C 439.566406 223.554688 439.960938 223.023438 440.328125 222.476562 C 440.695312 221.925781 441.03125 221.359375 441.34375 220.777344 C 441.65625 220.195312 441.9375 219.597656 442.191406 218.988281 C 442.441406 218.378906 442.664062 217.757812 442.855469 217.125 C 443.050781 216.492188 443.210938 215.851562 443.339844 215.203125 C 443.46875 214.558594 443.5625 213.902344 443.628906 213.246094 C 443.695312 212.589844 443.726562 211.929688 443.726562 211.269531 C 443.722656 210.609375 443.691406 209.953125 443.625 209.292969 C 443.558594 208.636719 443.460938 207.984375 443.328125 207.339844 C 443.199219 206.691406 443.039062 206.050781 442.84375 205.421875 C 442.652344 204.789062 442.429688 204.167969 442.175781 203.558594 C 441.921875 202.949219 441.640625 202.355469 441.328125 201.773438 C 441.015625 201.191406 440.675781 200.625 440.308594 200.078125 C 439.941406 199.527344 439.550781 199 439.128906 198.488281 C 438.710938 197.980469 438.269531 197.492188 437.800781 197.023438 C 437.335938 196.558594 436.847656 196.113281 436.335938 195.695312 C 435.828125 195.277344 435.296875 194.882812 434.75 194.515625 C 434.199219 194.148438 433.636719 193.808594 433.054688 193.5 C 432.472656 193.1875 431.875 192.902344 431.265625 192.652344 C 430.65625 192.398438 430.035156 192.175781 429.40625 191.980469 C 428.773438 191.789062 428.132812 191.628906 427.488281 191.496094 C 426.839844 191.367188 426.1875 191.269531 425.53125 191.203125 C 424.875 191.136719 424.214844 191.101562 423.554688 191.101562 Z M 423.554688 191.101562 " fill-opacity="1" fill-rule="nonzero"/></g><g clip-path="url(#e8022adc6e)"><path fill="#ffffff" d="M 447.964844 154.433594 L 379.234375 154.433594 C 378.957031 154.433594 378.679688 154.40625 378.40625 154.351562 C 378.136719 154.296875 377.871094 154.21875 377.613281 154.109375 C 377.355469 154.003906 377.113281 153.875 376.878906 153.71875 C 376.648438 153.566406 376.433594 153.390625 376.238281 153.191406 C 376.042969 152.996094 375.867188 152.78125 375.710938 152.550781 C 375.554688 152.320312 375.425781 152.074219 375.320312 151.816406 C 375.214844 151.5625 375.132812 151.296875 375.078125 151.023438 C 375.023438 150.75 374.996094 150.476562 374.996094 150.195312 L 374.996094 94.09375 C 374.996094 93.816406 375.023438 93.539062 375.078125 93.269531 C 375.132812 92.996094 375.214844 92.730469 375.320312 92.472656 C 375.425781 92.214844 375.554688 91.972656 375.710938 91.742188 C 375.867188 91.507812 376.042969 91.296875 376.238281 91.097656 C 376.433594 90.902344 376.648438 90.726562 376.878906 90.570312 C 377.113281 90.417969 377.355469 90.285156 377.613281 90.179688 C 377.871094 90.074219 378.136719 89.992188 378.40625 89.9375 C 378.679688 89.882812 378.957031 89.859375 379.234375 89.859375 L 400.871094 89.859375 C 402.882812 89.851562 404.859375 90.097656 406.808594 90.589844 C 408.753906 91.082031 410.613281 91.808594 412.375 92.769531 C 414.140625 93.730469 415.757812 94.894531 417.230469 96.261719 C 418.703125 97.628906 419.984375 99.15625 421.070312 100.847656 L 451.523438 147.910156 C 451.949219 148.558594 452.179688 149.273438 452.214844 150.050781 C 452.246094 150.828125 452.074219 151.558594 451.703125 152.242188 C 451.332031 152.921875 450.808594 153.460938 450.136719 153.855469 C 449.464844 154.25 448.742188 154.441406 447.964844 154.433594 Z M 383.472656 145.960938 L 440.167969 145.960938 L 413.953125 105.449219 C 413.246094 104.355469 412.417969 103.367188 411.464844 102.480469 C 410.511719 101.59375 409.464844 100.839844 408.324219 100.21875 C 407.179688 99.597656 405.976562 99.125 404.714844 98.808594 C 403.457031 98.488281 402.175781 98.328125 400.871094 98.332031 L 383.472656 98.332031 Z M 383.472656 145.960938 " fill-opacity="1" fill-rule="nonzero"/></g><path fill="#ffffff" d="M 298.8125 129.265625 L 254.515625 129.265625 C 254.238281 129.265625 253.964844 129.238281 253.691406 129.183594 C 253.417969 129.128906 253.152344 129.046875 252.894531 128.941406 C 252.636719 128.835938 252.394531 128.703125 252.164062 128.550781 C 251.929688 128.394531 251.71875 128.21875 251.519531 128.023438 C 251.324219 127.828125 251.148438 127.613281 250.992188 127.382812 C 250.839844 127.148438 250.707031 126.90625 250.601562 126.648438 C 250.496094 126.390625 250.414062 126.125 250.359375 125.855469 C 250.308594 125.582031 250.28125 125.304688 250.28125 125.027344 C 250.28125 124.75 250.308594 124.472656 250.359375 124.199219 C 250.414062 123.925781 250.496094 123.664062 250.601562 123.40625 C 250.707031 123.148438 250.839844 122.902344 250.992188 122.671875 C 251.148438 122.441406 251.324219 122.226562 251.519531 122.03125 C 251.71875 121.832031 251.929688 121.660156 252.164062 121.503906 C 252.394531 121.347656 252.636719 121.21875 252.894531 121.113281 C 253.152344 121.003906 253.417969 120.925781 253.691406 120.871094 C 253.964844 120.816406 254.238281 120.789062 254.515625 120.789062 L 298.8125 120.789062 C 299.089844 120.789062 299.363281 120.816406 299.636719 120.871094 C 299.910156 120.925781 300.175781 121.003906 300.433594 121.113281 C 300.6875 121.21875 300.933594 121.347656 301.164062 121.503906 C 301.394531 121.660156 301.609375 121.832031 301.808594 122.03125 C 302.003906 122.226562 302.179688 122.441406 302.332031 122.671875 C 302.488281 122.902344 302.617188 123.148438 302.726562 123.40625 C 302.832031 123.664062 302.914062 123.925781 302.964844 124.199219 C 303.019531 124.472656 303.046875 124.75 303.046875 125.027344 C 303.046875 125.304688 303.019531 125.582031 302.964844 125.855469 C 302.914062 126.125 302.832031 126.390625 302.726562 126.648438 C 302.617188 126.90625 302.488281 127.148438 302.332031 127.382812 C 302.179688 127.613281 302.003906 127.828125 301.808594 128.023438 C 301.609375 128.21875 301.394531 128.394531 301.164062 128.550781 C 300.933594 128.703125 300.6875 128.835938 300.433594 128.941406 C 300.175781 129.046875 299.910156 129.128906 299.636719 129.183594 C 299.363281 129.238281 299.089844 129.265625 298.8125 129.265625 Z M 298.8125 129.265625 " fill-opacity="1" fill-rule="nonzero"/><path fill="#ffffff" d="M 278.867188 160 L 226.238281 160 C 225.960938 160 225.6875 159.972656 225.414062 159.917969 C 225.140625 159.863281 224.875 159.78125 224.617188 159.675781 C 224.363281 159.570312 224.117188 159.4375 223.886719 159.285156 C 223.65625 159.128906 223.441406 158.953125 223.242188 158.757812 C 223.046875 158.5625 222.871094 158.347656 222.71875 158.117188 C 222.5625 157.882812 222.433594 157.640625 222.324219 157.382812 C 222.21875 157.125 222.136719 156.859375 222.085938 156.589844 C 222.03125 156.316406 222.003906 156.039062 222.003906 155.761719 C 222.003906 155.484375 222.03125 155.207031 222.085938 154.933594 C 222.136719 154.660156 222.21875 154.398438 222.324219 154.140625 C 222.433594 153.882812 222.5625 153.636719 222.71875 153.40625 C 222.871094 153.175781 223.046875 152.960938 223.242188 152.765625 C 223.441406 152.570312 223.65625 152.394531 223.886719 152.238281 C 224.117188 152.082031 224.363281 151.953125 224.617188 151.847656 C 224.875 151.738281 225.140625 151.660156 225.414062 151.605469 C 225.6875 151.550781 225.960938 151.523438 226.238281 151.523438 L 278.867188 151.523438 C 279.144531 151.523438 279.421875 151.550781 279.695312 151.605469 C 279.964844 151.660156 280.230469 151.738281 280.488281 151.847656 C 280.746094 151.953125 280.988281 152.082031 281.222656 152.238281 C 281.453125 152.394531 281.667969 152.570312 281.863281 152.765625 C 282.058594 152.960938 282.234375 153.175781 282.390625 153.40625 C 282.542969 153.636719 282.675781 153.882812 282.78125 154.140625 C 282.886719 154.398438 282.96875 154.660156 283.023438 154.933594 C 283.078125 155.207031 283.105469 155.484375 283.105469 155.761719 C 283.105469 156.039062 283.078125 156.316406 283.023438 156.589844 C 282.96875 156.859375 282.886719 157.125 282.78125 157.382812 C 282.675781 157.640625 282.542969 157.882812 282.390625 158.117188 C 282.234375 158.347656 282.058594 158.5625 281.863281 158.757812 C 281.667969 158.953125 281.453125 159.128906 281.222656 159.285156 C 280.988281 159.4375 280.746094 159.570312 280.488281 159.675781 C 280.230469 159.78125 279.964844 159.863281 279.695312 159.917969 C 279.421875 159.972656 279.144531 160 278.867188 160 Z M 278.867188 160 " fill-opacity="1" fill-rule="nonzero"/><path fill="#ffffff" d="M 274.007812 185.703125 L 242.398438 185.703125 C 242.121094 185.703125 241.84375 185.675781 241.570312 185.625 C 241.296875 185.570312 241.035156 185.488281 240.777344 185.382812 C 240.519531 185.277344 240.277344 185.144531 240.042969 184.992188 C 239.8125 184.835938 239.597656 184.660156 239.402344 184.464844 C 239.207031 184.265625 239.03125 184.054688 238.875 183.820312 C 238.71875 183.589844 238.589844 183.347656 238.484375 183.089844 C 238.378906 182.832031 238.296875 182.566406 238.242188 182.292969 C 238.1875 182.019531 238.160156 181.746094 238.160156 181.46875 C 238.160156 181.1875 238.1875 180.914062 238.242188 180.640625 C 238.296875 180.367188 238.378906 180.101562 238.484375 179.847656 C 238.589844 179.589844 238.71875 179.34375 238.875 179.113281 C 239.03125 178.882812 239.207031 178.667969 239.402344 178.472656 C 239.597656 178.273438 239.8125 178.097656 240.042969 177.945312 C 240.277344 177.789062 240.519531 177.660156 240.777344 177.554688 C 241.035156 177.445312 241.296875 177.367188 241.570312 177.3125 C 241.84375 177.257812 242.121094 177.230469 242.398438 177.230469 L 274.007812 177.230469 C 274.285156 177.230469 274.5625 177.257812 274.835938 177.3125 C 275.109375 177.367188 275.371094 177.445312 275.628906 177.554688 C 275.886719 177.660156 276.132812 177.789062 276.363281 177.945312 C 276.59375 178.097656 276.808594 178.273438 277.003906 178.472656 C 277.203125 178.667969 277.375 178.882812 277.53125 179.113281 C 277.6875 179.34375 277.816406 179.589844 277.921875 179.847656 C 278.03125 180.101562 278.109375 180.367188 278.164062 180.640625 C 278.21875 180.914062 278.246094 181.1875 278.246094 181.46875 C 278.246094 181.746094 278.21875 182.019531 278.164062 182.292969 C 278.109375 182.566406 278.03125 182.832031 277.921875 183.089844 C 277.816406 183.347656 277.6875 183.589844 277.53125 183.820312 C 277.375 184.054688 277.203125 184.265625 277.003906 184.464844 C 276.808594 184.660156 276.59375 184.835938 276.363281 184.992188 C 276.132812 185.144531 275.886719 185.277344 275.628906 185.382812 C 275.371094 185.488281 275.109375 185.570312 274.835938 185.625 C 274.5625 185.675781 274.285156 185.703125 274.007812 185.703125 Z M 274.007812 185.703125 " fill-opacity="1" fill-rule="nonzero"/><g fill="#ffffff" fill-opacity="1"><g transform="translate(221.233515, 293.378798)"><g><path d="M 42.015625 -7.953125 L 46.03125 0 L 37.109375 0 L 33.03125 -7.953125 L 23.359375 -27.046875 L 13.625 -7.953125 L 9.546875 0 L 0.640625 0 L 4.703125 -7.953125 L 23.359375 -44.5625 Z M 42.015625 -7.953125 "/></g></g></g><g fill="#ffffff" fill-opacity="1"><g transform="translate(267.948593, 293.378798)"><g><path d="M 15.21875 -44.5625 L 47.75 -44.5625 L 47.75 -36.609375 L 15.21875 -36.609375 C 14.070312 -36.609375 13.101562 -36.203125 12.3125 -35.390625 C 11.53125 -34.585938 11.140625 -33.632812 11.140625 -32.53125 L 11.140625 -28.390625 L 39.78125 -28.390625 L 39.78125 -20.4375 L 11.078125 -20.4375 L 11.078125 0 L 3.1875 0 L 3.1875 -32.53125 C 3.1875 -34.738281 3.722656 -36.753906 4.796875 -38.578125 C 5.878906 -40.398438 7.332031 -41.851562 9.15625 -42.9375 C 10.988281 -44.019531 13.007812 -44.5625 15.21875 -44.5625 Z M 15.21875 -44.5625 "/></g></g></g><g fill="#ffffff" fill-opacity="1"><g transform="translate(318.864212, 293.378798)"><g><path d="M 16.546875 -7.953125 L 39.90625 -7.953125 L 39.90625 0 L 17.375 0 C 15.164062 0 13.085938 -0.488281 11.140625 -1.46875 C 8.210938 -2.90625 6.046875 -5.066406 4.640625 -7.953125 C 3.671875 -9.910156 3.1875 -11.992188 3.1875 -14.203125 L 3.1875 -44.5625 L 11.140625 -44.5625 L 11.140625 -13.4375 C 11.304688 -11.988281 11.898438 -10.753906 12.921875 -9.734375 C 13.941406 -8.722656 15.148438 -8.128906 16.546875 -7.953125 Z M 16.546875 -7.953125 "/></g></g></g><g fill="#ffffff" fill-opacity="1"><g transform="translate(361.951558, 293.378798)"><g><path d="M 15.21875 -36.609375 C 14.070312 -36.609375 13.101562 -36.203125 12.3125 -35.390625 C 11.53125 -34.585938 11.140625 -33.632812 11.140625 -32.53125 L 11.140625 -28.390625 L 39.78125 -28.390625 L 39.78125 -20.4375 L 11.140625 -20.4375 L 11.140625 -12.03125 C 11.140625 -10.925781 11.53125 -9.96875 12.3125 -9.15625 C 13.101562 -8.351562 14.070312 -7.953125 15.21875 -7.953125 L 47.75 -7.953125 L 47.75 0 L 15.21875 0 C 13.007812 0 10.988281 -0.539062 9.15625 -1.625 C 7.332031 -2.707031 5.878906 -4.160156 4.796875 -5.984375 C 3.722656 -7.804688 3.1875 -9.820312 3.1875 -12.03125 L 3.1875 -32.53125 C 3.1875 -34.738281 3.722656 -36.753906 4.796875 -38.578125 C 5.878906 -40.398438 7.332031 -41.851562 9.15625 -42.9375 C 10.988281 -44.019531 13.007812 -44.5625 15.21875 -44.5625 L 47.75 -44.5625 L 47.75 -36.609375 Z M 15.21875 -36.609375 "/></g></g></g><g fill="#ffffff" fill-opacity="1"><g transform="translate(412.867178, 293.378798)"><g><path d="M 15.21875 -36.609375 C 14.070312 -36.609375 13.101562 -36.203125 12.3125 -35.390625 C 11.53125 -34.585938 11.140625 -33.632812 11.140625 -32.53125 L 11.140625 -28.390625 L 39.78125 -28.390625 L 39.78125 -20.4375 L 11.140625 -20.4375 L 11.140625 -12.03125 C 11.140625 -10.925781 11.53125 -9.96875 12.3125 -9.15625 C 13.101562 -8.351562 14.070312 -7.953125 15.21875 -7.953125 L 47.75 -7.953125 L 47.75 0 L 15.21875 0 C 13.007812 0 10.988281 -0.539062 9.15625 -1.625 C 7.332031 -2.707031 5.878906 -4.160156 4.796875 -5.984375 C 3.722656 -7.804688 3.1875 -9.820312 3.1875 -12.03125 L 3.1875 -32.53125 C 3.1875 -34.738281 3.722656 -36.753906 4.796875 -38.578125 C 5.878906 -40.398438 7.332031 -41.851562 9.15625 -42.9375 C 10.988281 -44.019531 13.007812 -44.5625 15.21875 -44.5625 L 47.75 -44.5625 L 47.75 -36.609375 Z M 15.21875 -36.609375 "/></g></g></g><g fill="#ffffff" fill-opacity="1"><g transform="translate(463.782786, 293.378798)"><g><path d="M 3.1875 -44.5 L 47.75 -44.5 L 47.75 -36.609375 L 29.40625 -36.609375 L 29.40625 0 L 21.453125 0 L 21.453125 -36.609375 L 3.1875 -36.609375 Z M 3.1875 -44.5 "/></g></g></g></svg>